<svg xmlns="http://www.w3.org/2000/svg" viewBox="0 0 1173.08 299.61"><defs><style>.cls-1,.cls-2{fill:#1d1d1b;stroke:#fff;stroke-miterlimit:10;}.cls-2{stroke-linecap:round;stroke-width:1px;}</style></defs><g id="Layer_2" data-name="Layer 2"><g id="logo_op1"><path id="bottom" class="cls-1" d="M43.16,213.79h0a42.66,42.66,0,0,1,42.66,42.66v42.66a0,0,0,0,1,0,0H43.16A42.66,42.66,0,0,1,.5,256.45v0A42.66,42.66,0,0,1,43.16,213.79Z" transform="translate(-213.29 299.62) rotate(-90)"/><path class="cls-2" d="M107.15,107.15h-64A42.65,42.65,0,0,0,.5,149.8v58.93a63.7,63.7,0,0,1,38.07-16.27H139.81a42.65,42.65,0,0,0,42.66-42.66V107.15Z"/><path id="top" class="cls-1" d="M43.16.5A42.66,42.66,0,0,0,.5,43.16v59A63.76,63.76,0,0,1,43.16,85.82h184a42,42,0,0,0,42-42V.5Z"/></g><g id="logotype"><path d="M1150.63,119.08v16a43.72,43.72,0,0,0-15.3-12.82,48.46,48.46,0,0,0-23.69-5.68,54.5,54.5,0,0,0-29.36,8.14,59.87,59.87,0,0,0-20.48,22,64.88,64.88,0,0,0-7.4,31.09,64.82,64.82,0,0,0,7.4,31.09,59.13,59.13,0,0,0,20.73,22,55.24,55.24,0,0,0,29.11,7.9q13.58,0,23.94-5.43a43.9,43.9,0,0,0,15.05-13v15.95h22.45V119.08ZM1142,206.67q-10.11,11.1-26.65,11.1a37.58,37.58,0,0,1-19.74-5.18A37.17,37.17,0,0,1,1082,198.53a45.35,45.35,0,0,1-4.68-21,43.26,43.26,0,0,1,4.68-20.48,35.92,35.92,0,0,1,33.07-19.5,36.28,36.28,0,0,1,19.49,5.19,32.24,32.24,0,0,1,12.83,14.06q4.68,8.88,4.69,21Q1152.11,195.32,1142,206.67Z"/><path d="M1009.38,122a47.79,47.79,0,0,0-23-5.43,48.05,48.05,0,0,0-39.73,21l-.18.31c-.11-.18-.2-.37-.31-.55A39.28,39.28,0,0,0,930.42,122a48.17,48.17,0,0,0-44.91.25,40.63,40.63,0,0,0-12.58,10.37V119.08H850.72v117.2h22.21V165.22a26.93,26.93,0,0,1,4-14.81,27.66,27.66,0,0,1,10.36-9.62,30.26,30.26,0,0,1,14.56-3.45q12.09,0,20,7.65,8.15,7.39,8.15,20.48v70.81h22.2V165.22a26.93,26.93,0,0,1,4-14.81,27.74,27.74,0,0,1,10.36-9.62,31.72,31.72,0,0,1,14.81-3.45q11.84,0,19.74,7.65,8.14,7.39,8.14,20.48v70.81h22.45V161q0-13.82-6.17-23.68A40.94,40.94,0,0,0,1009.38,122Z"/><path d="M799.86,124q-12.33-7.4-28.62-7.4a60,60,0,0,0-52.55,29.86,61.46,61.46,0,0,0-7.9,31.09,60,60,0,0,0,30.35,53.29,63.43,63.43,0,0,0,31.58,7.9,65.16,65.16,0,0,0,25.91-5.18,54.61,54.61,0,0,0,20.73-15.06L805,204a37.21,37.21,0,0,1-14.31,10.36,45.68,45.68,0,0,1-18,3.45,43.42,43.42,0,0,1-21-4.93,35.71,35.71,0,0,1-14.06-14.31,41.87,41.87,0,0,1-4.19-12.59h91.78a61.13,61.13,0,0,0,1-6.41c.17-2,.25-3.78.25-5.43a60.67,60.67,0,0,0-7.15-29.61A50.94,50.94,0,0,0,799.86,124Zm-49.1,18a39.59,39.59,0,0,1,20-4.94q10.86,0,18.5,4.69a29.91,29.91,0,0,1,11.85,12.83,38.39,38.39,0,0,1,3.75,12.83H733.56a39.54,39.54,0,0,1,3.88-11.6A33.7,33.7,0,0,1,750.76,142Z"/><path d="M666.17,123.27a41.65,41.65,0,0,0-23.44-6.66,46.74,46.74,0,0,0-23.93,6.17,42.72,42.72,0,0,0-13.33,11.45V119.08h-22.2v117.2h22.2V167.93a31.29,31.29,0,0,1,3.95-15.79,28.65,28.65,0,0,1,10.86-10.85,31.16,31.16,0,0,1,15.79-3.95q13.32,0,21.71,8.63t8.39,22v68.35h22.21V163.49a45.85,45.85,0,0,0-5.93-22.7A47.48,47.48,0,0,0,666.17,123.27Z"/><path d="M527.9,124.75a63,63,0,0,0-61.93,0,61,61,0,0,0-22,22,58.32,58.32,0,0,0-8.15,30.6A60.44,60.44,0,0,0,466,230.6a61.82,61.82,0,0,0,84.13-22,61.36,61.36,0,0,0,8.15-31.33,59.59,59.59,0,0,0-8.15-30.84A58.75,58.75,0,0,0,527.9,124.75ZM530.36,198a37.12,37.12,0,0,1-13.57,14.07,40.18,40.18,0,0,1-39.47,0A37.15,37.15,0,0,1,463.74,198a43,43,0,0,1-4.93-20.72,41,41,0,0,1,4.93-20.23,35.39,35.39,0,0,1,13.58-13.82,37.61,37.61,0,0,1,19.73-5.18,36.39,36.39,0,0,1,19.5,5.18,35.43,35.43,0,0,1,13.57,13.82,39.42,39.42,0,0,1,5.18,20.23A42.85,42.85,0,0,1,530.36,198Z"/><path d="M396.37,84.54q5.92-6.18,16.53-6.17a22.15,22.15,0,0,1,16.78,7.15l14.55-14.31A43.54,43.54,0,0,0,430.66,61.1a40.94,40.94,0,0,0-17.51-3.46q-13.33,0-23.44,5.68a41.43,41.43,0,0,0-15.55,15.54q-5.67,9.63-5.67,22.7v17.52H339.62v20.23h28.87v59h-.17q0,10.86-5.68,17-5.92,6.16-16.53,6.16l-.25,20.73q13.33,0,23.44-5.67A41.6,41.6,0,0,0,384.85,221q5.63-9.55,5.67-22.52l.17-.3V139.31H428V119.08H390.69V101.56Q390.69,90.7,396.37,84.54Z"/></g></g></svg>