<svg width="674" height="172" viewBox="0 0 674 172" fill="none" xmlns="http://www.w3.org/2000/svg">
<g clip-path="url(#clip0_171_494)">
<path d="M7.51367 144.36C7.51367 138.169 9.97301 132.232 14.3507 127.854C18.7283 123.477 24.6657 121.017 30.8566 121.017H54.1995V144.36C54.1995 147.426 53.5957 150.461 52.4226 153.293C51.2495 156.125 49.5301 158.699 47.3625 160.866C45.1949 163.034 42.6216 164.753 39.7895 165.926C36.9574 167.099 33.922 167.703 30.8566 167.703C24.6657 167.703 18.7283 165.244 14.3507 160.866C9.97301 156.489 7.51367 150.551 7.51367 144.36Z" fill="white"/>
<path d="M65.8709 62.6602H30.8511C27.7864 62.6602 24.7517 63.2638 21.9203 64.4366C19.0888 65.6094 16.5161 67.3284 14.349 69.4955C9.97243 73.8721 7.51367 79.8081 7.51367 85.9975V118.243C13.2725 113.039 20.6036 109.906 28.345 109.34H83.742C86.8076 109.341 89.8433 108.738 92.6758 107.565C95.5082 106.392 98.0818 104.673 100.249 102.505C102.417 100.337 104.137 97.7637 105.309 94.9313C106.482 92.0989 107.086 89.0632 107.085 85.9975V62.6602H65.8709Z" fill="white"/>
<path d="M30.8566 4.30273C24.6656 4.30273 18.7283 6.76206 14.3506 11.1397C9.97301 15.5173 7.51367 21.4547 7.51367 27.6456V59.9294C13.9233 54.1683 22.2384 50.9834 30.8566 50.9885H131.539C137.634 50.9885 143.479 48.5672 147.789 44.2573C152.099 39.9474 154.52 34.1019 154.52 28.0067V4.30273H30.8566Z" fill="white"/>
<path d="M660.555 68.36V77.5453C658.234 74.4476 655.227 71.9287 651.771 70.1856C647.59 67.9583 642.908 66.8359 638.171 66.9248C632.223 66.8485 626.376 68.4695 621.316 71.5978C616.387 74.7395 612.341 79.0864 609.559 84.2276C606.677 89.7297 605.217 95.8652 605.311 102.076C605.215 108.286 606.676 114.422 609.559 119.924C612.365 125.094 616.466 129.446 621.46 132.554C626.502 135.586 632.288 137.157 638.171 137.089C643.369 137.089 647.95 136.05 651.915 133.972C655.328 132.178 658.284 129.624 660.555 126.509V135.665H673.443V68.36H660.555ZM655.6 118.644C651.731 122.892 646.631 125.016 640.301 125.016C636.322 125.089 632.4 124.06 628.969 122.042C625.69 120.098 622.992 117.311 621.156 113.971C619.306 110.226 618.384 106.091 618.469 101.915C618.385 97.8347 619.308 93.7966 621.156 90.1578C622.937 86.6871 625.667 83.793 629.027 81.8115C632.388 79.8299 636.241 78.8423 640.14 78.9633C644.077 78.8789 647.956 79.912 651.329 81.9427C654.541 83.8307 657.108 86.6438 658.695 90.0143C660.486 93.4129 661.383 97.4314 661.387 102.07C661.399 108.775 659.47 114.3 655.6 118.644Z" fill="white"/>
<path d="M579.466 70.0377C575.395 67.9096 570.855 66.8378 566.262 66.9205C561.766 66.9188 557.337 68.0164 553.362 70.1176C549.387 72.2188 545.986 75.2599 543.454 78.9761L543.351 79.1541C543.288 79.0508 543.236 78.9417 543.173 78.8384C541.059 75.105 537.925 72.052 534.137 70.0377C530.151 67.9657 525.72 66.896 521.228 66.921C516.736 66.946 512.318 68.065 508.355 70.1812C505.57 71.6573 503.113 73.6825 501.133 76.1344V68.3614H488.383V135.644H501.133V94.8494C501.058 91.8527 501.856 88.8988 503.429 86.3473C504.9 84.0223 506.949 82.1193 509.377 80.8247C511.953 79.4752 514.827 78.7941 517.736 78.8441C522.363 78.8441 526.19 80.308 529.217 83.2358C532.336 86.0641 533.896 89.9832 533.896 94.993V135.644H546.64V94.8494C546.565 91.8527 547.363 88.8988 548.937 86.3473C550.409 84.0237 552.458 82.121 554.884 80.8247C557.516 79.4849 560.434 78.8052 563.386 78.8441C567.918 78.8441 571.695 80.308 574.719 83.2358C577.834 86.0641 579.392 89.9832 579.392 94.993V135.644H592.28V92.4268C592.28 87.1376 591.099 82.6062 588.738 78.8326C586.519 75.1009 583.31 72.0568 579.466 70.0377Z" fill="white"/>
<path d="M459.186 71.1859C454.467 68.3537 448.991 66.9377 442.756 66.9377C436.66 66.8699 430.656 68.421 425.356 71.4326C420.056 74.4442 415.65 78.8085 412.588 84.0797C409.523 89.5227 407.958 95.6819 408.053 101.928C407.937 108.123 409.494 114.234 412.561 119.618C415.627 125.002 420.089 129.46 425.476 132.521C431.022 135.584 437.271 137.147 443.606 137.056C448.715 137.091 453.777 136.079 458.48 134.082C463.076 132.185 467.156 129.221 470.381 125.436L462.137 117.112C459.916 119.725 457.098 121.765 453.922 123.06C450.647 124.411 447.131 125.085 443.588 125.04C439.396 125.126 435.249 124.153 431.533 122.21C428.113 120.299 425.311 117.448 423.461 113.995C422.28 111.729 421.468 109.289 421.056 106.767H473.745C474.001 105.552 474.193 104.323 474.319 103.087C474.417 101.939 474.462 100.917 474.462 99.9702C474.562 94.0472 473.149 88.1966 470.358 82.9717C467.821 78.0672 463.948 73.981 459.186 71.1859ZM430.999 81.5193C434.509 79.5773 438.47 78.5989 442.48 78.6833C446.637 78.6833 450.177 79.5808 453.101 81.3758C456.051 83.0995 458.419 85.664 459.904 88.7412C461.047 91.0516 461.775 93.5445 462.057 96.1067H421.125C421.517 93.7848 422.269 91.5381 423.352 89.4473C425.079 86.1196 427.736 83.3652 430.999 81.5193Z" fill="white"/>
<path d="M382.437 70.7657C378.433 68.1782 373.747 66.8468 368.98 66.9423C364.166 66.8691 359.421 68.0926 355.243 70.4844C352.264 72.1215 349.658 74.3599 347.59 77.0576V68.3603H334.846V135.642H347.59V96.4041C347.533 93.2354 348.316 90.108 349.858 87.3394C351.331 84.7346 353.486 82.5811 356.092 81.1106C358.86 79.565 361.988 78.7824 365.157 78.843C370.255 78.843 374.409 80.4944 377.62 83.7973C380.831 87.1002 382.437 91.3101 382.437 96.427V135.665H395.187V93.8552C395.202 89.2896 394.029 84.7987 391.783 80.8235C389.577 76.7284 386.359 73.2659 382.437 70.7657Z" fill="white"/>
<path d="M303.059 71.6154C297.634 68.554 291.511 66.9453 285.282 66.9453C279.054 66.9453 272.93 68.554 267.506 71.6154C262.275 74.6629 257.924 79.0144 254.876 84.2452C251.726 89.5572 250.107 95.637 250.197 101.812C250.103 107.988 251.659 114.078 254.704 119.452C257.75 124.826 262.176 129.29 267.523 132.382C275.615 137.061 285.225 138.359 294.268 135.994C303.311 133.63 311.055 127.793 315.82 119.752C318.962 114.284 320.578 108.072 320.499 101.766C320.578 95.549 318.96 89.4282 315.82 84.0615C312.76 78.8434 308.352 74.5445 303.059 71.6154ZM304.471 113.667C302.642 117.007 299.952 119.796 296.681 121.744C293.223 123.694 289.321 124.718 285.351 124.718C281.382 124.718 277.479 123.694 274.022 121.744C270.748 119.796 268.056 117.007 266.226 113.667C264.3 110.002 263.327 105.911 263.396 101.772C263.324 97.7216 264.299 93.7214 266.226 90.1582C268.036 86.8399 270.736 84.0923 274.022 82.2244C277.451 80.2087 281.371 79.1796 285.348 79.2507C289.286 79.167 293.166 80.1979 296.543 82.2244C299.826 84.0941 302.524 86.8414 304.333 90.1582C306.35 93.6917 307.378 97.7037 307.307 101.772C307.378 105.912 306.402 110.004 304.471 113.667Z" fill="white"/>
<path d="M227.55 48.5319C229.815 46.1667 232.979 44.986 237.039 44.9899C238.844 44.9509 240.637 45.2969 242.298 46.0046C243.959 46.7123 245.45 47.7657 246.672 49.0945L255.025 40.8794C252.833 38.4539 250.186 36.482 247.235 35.0755C244.071 33.6822 240.639 33.0039 237.183 33.0892C232.081 33.0892 227.596 34.1761 223.726 36.35C220.002 38.4655 216.917 41.5478 214.799 45.2711C212.629 48.9567 211.544 53.3006 211.544 58.3028V68.3606H194.971V79.9743H211.544V113.845H211.447C211.447 118.001 210.36 121.254 208.186 123.604C205.92 125.962 202.757 127.141 198.696 127.141L198.553 139.041C203.655 139.041 208.14 137.956 212.009 135.786C215.73 133.668 218.814 130.589 220.936 126.871C223.091 123.216 224.176 118.906 224.191 113.943L224.289 113.77V79.9743H245.708V68.3606H224.289V58.3028C224.289 54.1464 225.376 50.8895 227.55 48.5319Z" fill="white"/>
</g>
<defs>
<clipPath id="clip0_171_494">
<rect width="673.441" height="172" fill="white"/>
</clipPath>
</defs>
</svg>
